<?xml version="1.0" encoding="utf-8"?>
<!-- Generator: Adobe Illustrator 16.0.0, SVG Export Plug-In . SVG Version: 6.00 Build 0)  -->
<!DOCTYPE svg PUBLIC "-//W3C//DTD SVG 1.1//EN" "http://www.w3.org/Graphics/SVG/1.1/DTD/svg11.dtd">
<svg version="1.1" id="Layer_1" xmlns="http://www.w3.org/2000/svg" xmlns:xlink="http://www.w3.org/1999/xlink" x="0px" y="0px"
	 width="813.082px" height="914.79px" viewBox="0 0 813.082 914.79" enable-background="new 0 0 813.082 914.79"
	 xml:space="preserve">
<g>
	<g>
		<polygon fill-rule="evenodd" clip-rule="evenodd" fill="#E7D1A7" points="613.735,558.483 602.885,719.604 683.901,811.891 
			714.698,781.49 728.156,580.702 		"/>
		<polygon fill-rule="evenodd" clip-rule="evenodd" fill="#F8C293" points="724.489,597.341 724.905,797.962 668.441,811.649 
			608.45,724.556 608.246,607.516 		"/>
		<g>
			<path fill-rule="evenodd" clip-rule="evenodd" fill="#D4B194" d="M547.18,409.538l22.57,120.927
				c2.294,12.286,23.193,56.621,35.629,55.321c12.425-1.293,13.158-39.413,10.551-51.654l-21.361-92.162
				C585.665,403.563,560.448,406.642,547.18,409.538z"/>
			
				<path fill-rule="evenodd" clip-rule="evenodd" fill="#F8C293" stroke="#F8C293" stroke-width="0.216" stroke-miterlimit="22.9256" d="
				M780.64,446.674l-32.164,97.538c-0.343,26.791-15.271,61.061-26.875,74.589c-34.392,40.077-96.063,13.629-111.051-10.379
				c-11.683-18.721-22.095-30.772-22.112-45.109l23.565-132.124C611.985,413.571,780.905,425.864,780.64,446.674z"/>
		</g>
		<polygon fill-rule="evenodd" clip-rule="evenodd" fill="#C1272D" points="739.225,658.09 738.721,811.649 598.159,811.649 
			598.875,658.06 		"/>
	</g>
	<path fill-rule="evenodd" clip-rule="evenodd" fill="#FFFFFF" d="M194.118,0c72.2,18.202,143.148,73.588,212.807,188.817V593.85
		c-69.659-115.229-140.606-170.615-212.807-188.815V0z"/>
	<path fill-rule="evenodd" clip-rule="evenodd" fill="#FFDED6" d="M158.452,66.536c84.299-4.375,167.138,28.829,248.472,122.281
		c0,135.008,0,270.025,0,405.033c-81.334-93.448-164.173-126.651-248.472-122.277C158.452,336.559,158.452,201.547,158.452,66.536z"
		/>
	<path fill-rule="evenodd" clip-rule="evenodd" fill="#FFC7BA" d="M122.783,133.073c96.406-26.949,191.132-15.927,284.142,55.744
		c0,135.008,0,270.025,0,405.033c-93.01-71.667-187.736-82.688-284.142-55.744C122.783,403.096,122.783,268.084,122.783,133.073z"/>
	<g>
		<polygon fill-rule="evenodd" clip-rule="evenodd" fill="#E7D1A7" points="209.558,558.483 220.408,719.604 139.392,811.891 
			108.594,781.49 95.137,580.702 		"/>
		<polygon fill-rule="evenodd" clip-rule="evenodd" fill="#F8C293" points="98.803,597.341 98.387,811.649 137.555,811.649 
			214.843,724.556 215.051,607.516 		"/>
		<g>
			<path fill-rule="evenodd" clip-rule="evenodd" fill="#D4B194" d="M276.113,409.538l-22.57,120.927
				c-2.29,12.286-23.194,56.621-35.629,55.321c-12.424-1.293-13.158-39.413-10.551-51.654l21.361-92.162
				C237.627,403.563,262.845,406.642,276.113,409.538z"/>
			<path fill-rule="evenodd" clip-rule="evenodd" fill="#F8C293" d="M42.654,446.674l32.163,97.538
				c0.343,26.791,15.272,61.061,26.875,74.589c34.391,40.077,96.063,13.629,111.05-10.379
				c11.687-18.721,22.095-30.772,22.113-45.109L211.29,431.188C211.308,413.571,42.387,425.864,42.654,446.674z"/>
		</g>
		<polygon fill-rule="evenodd" clip-rule="evenodd" fill="#C1272D" points="84.067,658.074 84.571,811.649 225.134,811.649 
			224.418,658.046 		"/>
	</g>
	<path fill-rule="evenodd" clip-rule="evenodd" fill="#422F26" d="M72.771,189.463c101.633-41.122,194.156-46.417,282.309-13.947
		c0,144.226-0.014,286.773-0.014,430.999c-81.093-35.409-173.954-23.14-282.294,15.624
		C72.771,477.913,72.771,333.689,72.771,189.463z"/>
	<path fill-rule="evenodd" clip-rule="evenodd" fill="#FFFFFF" d="M619.724,0c-72.2,18.202-143.141,73.588-212.799,188.817V593.85
		c69.659-115.229,140.599-170.615,212.799-188.815V0z"/>
	<path fill-rule="evenodd" clip-rule="evenodd" fill="#FFDED6" d="M655.394,66.536c-84.3-4.375-167.131,28.829-248.469,122.281
		c0,135.008,0,270.025,0,405.033c81.338-93.448,164.169-126.651,248.469-122.277C655.394,336.559,655.394,201.547,655.394,66.536z"
		/>
	<path fill-rule="evenodd" clip-rule="evenodd" fill="#FFC7BA" d="M691.066,133.073c-96.406-26.949-191.128-15.927-284.142,55.744
		c0,135.008,0,270.025,0,405.033c93.014-71.667,187.736-82.688,284.142-55.744C691.066,403.096,691.066,268.084,691.066,133.073z"/>
	<path fill-rule="evenodd" clip-rule="evenodd" fill="#F8C293" d="M161.896,320.209L161.896,320.209
		c2.22,9.718-3.806,20.173-13.626,21.7L59.493,355.71c-9.824,1.526-19.48-3.911-21.7-13.625l0,0
		c-2.221-9.718,3.915-19.455,13.629-21.697l88.773-13.804C150.048,305.054,159.675,310.495,161.896,320.209z"/>
	<path fill-rule="evenodd" clip-rule="evenodd" fill="#F8C293" d="M174.766,362.697L174.766,362.697
		c1.3,10.171-5.916,20.284-16.127,20.853l-97.944,5.459c-10.211,0.574-19.553-5.956-20.853-16.13l0,0
		c-1.296-10.171,5.96-19.527,16.131-20.85l97.943-5.46C164.156,345.996,173.469,352.526,174.766,362.697z"/>
	<path fill-rule="evenodd" clip-rule="evenodd" fill="#F8C293" d="M171.445,406.766L171.445,406.766
		c0.632,10.238-7.227,19.843-17.456,19.755l-92.437-0.825c-10.229-0.095-19.126-7.224-19.754-17.462l0,0
		c-0.628-10.237,7.224-19.097,17.46-19.75l92.436,0.822C161.95,389.4,170.817,396.529,171.445,406.766z"/>
	<path fill-rule="evenodd" clip-rule="evenodd" fill="#F8C293" d="M144.622,449.448L144.622,449.448
		c-0.205,9.153-7.936,17.311-17,16.26l-70.816-8.21c-9.064-1.045-16.463-7.852-16.259-16.997l0,0
		c0.205-9.152,7.852-16.441,17-16.259l70.817,8.211C137.456,433.504,144.83,440.304,144.622,449.448z"/>
	<path fill-rule="evenodd" clip-rule="evenodd" fill="#493328" d="M355.077,175.516c10.35,3.773,29.308,13.301,51.844,13.301
		v362.055h0.003v68.95h-0.003c-22.537,0-46.739-11.313-51.844-13.308l-0.011-31.838L355.077,175.516z"/>
	<path fill-rule="evenodd" clip-rule="evenodd" fill="#683D2C" d="M458.769,175.516c-10.351,3.773-29.308,13.301-51.844,13.301
		v362.055l0,0v68.95l0,0c22.541,0,46.739-11.313,51.848-13.308l0.011-31.838L458.769,175.516z"/>
	<path fill-rule="evenodd" clip-rule="evenodd" fill="#75442C" d="M741.077,189.463c-101.632-41.122-194.156-46.417-282.309-13.947
		c0,144.226,0.015,286.773,0.015,430.999c81.094-35.409,173.953-23.14,282.294,15.624
		C741.077,477.913,741.077,333.689,741.077,189.463z"/>
	<path fill-rule="evenodd" clip-rule="evenodd" fill="#F8C293" d="M661.397,320.209L661.397,320.209
		c-2.217,9.718,3.806,20.173,13.629,21.7L763.8,355.71c9.824,1.526,19.48-3.911,21.701-13.625l0,0
		c2.22-9.718-3.915-19.455-13.631-21.697l-88.776-13.804C673.244,305.054,663.617,310.495,661.397,320.209z"/>
	<path fill-rule="evenodd" clip-rule="evenodd" fill="#F8C293" d="M648.524,362.697L648.524,362.697
		c-1.297,10.171,5.923,20.284,16.131,20.853l97.943,5.459c10.211,0.574,19.553-5.956,20.853-16.13l0,0
		c1.301-10.171-5.96-19.527-16.131-20.85l-97.943-5.46C659.137,345.996,649.823,352.526,648.524,362.697z"/>
	<path fill-rule="evenodd" clip-rule="evenodd" fill="#F8C293" d="M651.843,406.766L651.843,406.766
		c-0.627,10.238,7.232,19.843,17.465,19.755l92.433-0.825c10.229-0.095,19.121-7.224,19.755-17.462l0,0
		c0.631-10.233-7.225-19.097-17.461-19.75l-92.438,0.822C661.338,389.396,652.476,396.529,651.843,406.766z"/>
	<path fill-rule="evenodd" clip-rule="evenodd" fill="#F8C293" d="M678.667,449.448L678.667,449.448
		c0.209,9.153,7.94,17.311,17.004,16.26l70.816-8.202c9.064-1.053,16.464-7.859,16.259-17.005l0,0
		c-0.204-9.152-7.851-16.441-17-16.259l-70.816,8.211C685.837,433.504,678.463,440.304,678.667,449.448z"/>
	<g>
		<g>
			<path fill-rule="evenodd" clip-rule="evenodd" fill="#FFEABF" d="M93,658.074L93,658.074c0,4.923-3.984,8.918-8.904,8.933
				l-0.029-8.933H93z"/>
			<path fill-rule="evenodd" clip-rule="evenodd" fill="#FFEABF" d="M139.783,658.06v0.015c0,4.931-3.999,8.933-8.933,8.933
				c-4.934,0-8.933-4.002-8.933-8.933v-0.007L139.783,658.06z"/>
			<path fill-rule="evenodd" clip-rule="evenodd" fill="#FFEABF" d="M186.568,658.052v0.022c0,4.931-4.002,8.933-8.932,8.933
				c-4.934,0-8.933-4.002-8.933-8.933v-0.015L186.568,658.052z"/>
			<path fill-rule="evenodd" clip-rule="evenodd" fill="#FFEABF" d="M224.462,667.007h-0.044c-4.934,0-8.932-4.002-8.932-8.933
				v-0.028h8.932L224.462,667.007z"/>
		</g>
		<g>
			<path fill-rule="evenodd" clip-rule="evenodd" fill="#FFEABF" d="M107.459,681.498c4.934,0,8.932,4.003,8.932,8.933
				c0,4.938-3.999,8.933-8.932,8.933c-4.934,0-8.933-3.995-8.933-8.933C98.526,685.501,102.525,681.498,107.459,681.498z"/>
			<path fill-rule="evenodd" clip-rule="evenodd" fill="#FFEABF" d="M154.245,681.498c4.93,0,8.933,4.003,8.933,8.933
				c0,4.938-4.003,8.933-8.933,8.933c-4.934,0-8.936-3.995-8.936-8.933C145.309,685.501,149.311,681.498,154.245,681.498z"/>
			<path fill-rule="evenodd" clip-rule="evenodd" fill="#FFEABF" d="M201.027,681.498c4.934,0,8.933,4.003,8.933,8.933
				c0,4.938-3.999,8.933-8.933,8.933c-4.934,0-8.933-3.995-8.933-8.933C192.094,685.501,196.093,681.498,201.027,681.498z"/>
		</g>
		<g>
			<path fill-rule="evenodd" clip-rule="evenodd" fill="#FFEABF" d="M84.254,715.63C89.1,715.732,93,719.691,93,724.563
				c0,4.85-3.868,8.794-8.688,8.926L84.254,715.63z"/>
			<path fill-rule="evenodd" clip-rule="evenodd" fill="#FFEABF" d="M130.85,715.63c4.934,0,8.933,4.003,8.933,8.934
				c0,4.93-3.999,8.933-8.933,8.933c-4.934,0-8.933-4.003-8.933-8.933C121.917,719.633,125.916,715.63,130.85,715.63z"/>
			<path fill-rule="evenodd" clip-rule="evenodd" fill="#FFEABF" d="M177.636,715.63c4.93,0,8.932,4.003,8.932,8.934
				c0,4.93-4.002,8.933-8.932,8.933c-4.934,0-8.933-4.003-8.933-8.933C168.703,719.633,172.702,715.63,177.636,715.63z"/>
			<path fill-rule="evenodd" clip-rule="evenodd" fill="#FFEABF" d="M224.418,715.63l0.271,0.007l0.083,17.853l-0.354,0.007
				c-4.934,0-8.932-4.003-8.932-8.933C215.486,719.633,219.484,715.63,224.418,715.63z"/>
		</g>
		<g>
			<path fill-rule="evenodd" clip-rule="evenodd" fill="#FFEABF" d="M107.459,747.987c4.934,0,8.932,4.002,8.932,8.933
				c0,4.938-3.999,8.933-8.932,8.933c-4.934,0-8.933-3.995-8.933-8.933C98.526,751.989,102.525,747.987,107.459,747.987z"/>
			<path fill-rule="evenodd" clip-rule="evenodd" fill="#FFEABF" d="M154.245,747.987c4.93,0,8.933,4.002,8.933,8.933
				c0,4.938-4.003,8.933-8.933,8.933c-4.934,0-8.936-3.995-8.936-8.933C145.309,751.989,149.311,747.987,154.245,747.987z"/>
			<path fill-rule="evenodd" clip-rule="evenodd" fill="#FFEABF" d="M201.027,747.987c4.934,0,8.933,4.002,8.933,8.933
				c0,4.938-3.999,8.933-8.933,8.933c-4.934,0-8.933-3.995-8.933-8.933C192.094,751.989,196.093,747.987,201.027,747.987z"/>
		</g>
		<g>
			<path fill-rule="evenodd" clip-rule="evenodd" fill="#FFEABF" d="M84.473,782.126c4.748,0.213,8.528,4.126,8.528,8.926
				c0,4.777-3.751,8.677-8.469,8.919L84.473,782.126z"/>
			<path fill-rule="evenodd" clip-rule="evenodd" fill="#FFEABF" d="M130.85,782.119c4.934,0,8.933,3.995,8.933,8.933
				c0,4.93-3.999,8.933-8.933,8.933c-4.934,0-8.933-4.003-8.933-8.933C121.917,786.114,125.916,782.119,130.85,782.119z"/>
			<path fill-rule="evenodd" clip-rule="evenodd" fill="#FFEABF" d="M177.636,782.119c4.93,0,8.932,3.995,8.932,8.933
				c0,4.93-4.002,8.933-8.932,8.933c-4.934,0-8.933-4.003-8.933-8.933C168.703,786.114,172.702,782.119,177.636,782.119z"/>
			<path fill-rule="evenodd" clip-rule="evenodd" fill="#FFEABF" d="M224.418,782.119c0.198,0,0.388,0.007,0.581,0.021l0.084,17.822
				c-0.219,0.014-0.442,0.021-0.665,0.021c-4.934,0-8.932-4.003-8.932-8.933C215.486,786.114,219.484,782.119,224.418,782.119z"/>
		</g>
	</g>
	<g>
		<g>
			<path fill-rule="evenodd" clip-rule="evenodd" fill="#FFEABF" d="M606.8,658.074L606.8,658.074c0,4.923-3.984,8.918-8.904,8.933
				l-0.028-8.933H606.8z"/>
			<path fill-rule="evenodd" clip-rule="evenodd" fill="#FFEABF" d="M653.582,658.06v0.015c0,4.931-3.999,8.933-8.933,8.933
				s-8.934-4.002-8.934-8.933v-0.007L653.582,658.06z"/>
			<path fill-rule="evenodd" clip-rule="evenodd" fill="#FFEABF" d="M700.368,658.052v0.022c0,4.931-4.003,8.933-8.933,8.933
				c-4.935,0-8.937-4.002-8.937-8.933v-0.015L700.368,658.052z"/>
			<path fill-rule="evenodd" clip-rule="evenodd" fill="#FFEABF" d="M738.261,667.007h-0.043c-4.934,0-8.933-4.002-8.933-8.933
				v-0.028h8.933L738.261,667.007z"/>
		</g>
		<g>
			<path fill-rule="evenodd" clip-rule="evenodd" fill="#FFEABF" d="M621.258,681.498c4.935,0,8.933,4.003,8.933,8.933
				c0,4.938-3.998,8.933-8.933,8.933s-8.933-3.995-8.933-8.933C612.325,685.501,616.323,681.498,621.258,681.498z"/>
			<path fill-rule="evenodd" clip-rule="evenodd" fill="#FFEABF" d="M668.044,681.498c4.931,0,8.934,4.003,8.934,8.933
				c0,4.938-4.003,8.933-8.934,8.933c-4.934,0-8.937-3.995-8.937-8.933C659.107,685.501,663.11,681.498,668.044,681.498z"/>
			<path fill-rule="evenodd" clip-rule="evenodd" fill="#FFEABF" d="M714.826,681.498c4.935,0,8.933,4.003,8.933,8.933
				c0,4.938-3.998,8.933-8.933,8.933c-4.934,0-8.933-3.995-8.933-8.933C705.894,685.501,709.893,681.498,714.826,681.498z"/>
		</g>
		<g>
			<path fill-rule="evenodd" clip-rule="evenodd" fill="#FFEABF" d="M598.057,715.63c4.843,0.103,8.743,4.062,8.743,8.934
				c0,4.85-3.867,8.794-8.688,8.926L598.057,715.63z"/>
			<path fill-rule="evenodd" clip-rule="evenodd" fill="#FFEABF" d="M644.649,715.63c4.934,0,8.933,4.003,8.933,8.934
				c0,4.93-3.999,8.933-8.933,8.933s-8.934-4.003-8.934-8.933C635.716,719.633,639.716,715.63,644.649,715.63z"/>
			<path fill-rule="evenodd" clip-rule="evenodd" fill="#FFEABF" d="M691.436,715.63c4.93,0,8.933,4.003,8.933,8.934
				c0,4.93-4.003,8.933-8.933,8.933c-4.935,0-8.937-4.003-8.937-8.933C682.499,719.633,686.501,715.63,691.436,715.63z"/>
			<path fill-rule="evenodd" clip-rule="evenodd" fill="#FFEABF" d="M738.218,715.63l0.271,0.007l0.084,17.853l-0.354,0.007
				c-4.934,0-8.933-4.003-8.933-8.933C729.285,719.633,733.284,715.63,738.218,715.63z"/>
		</g>
		<g>
			<path fill-rule="evenodd" clip-rule="evenodd" fill="#FFEABF" d="M621.258,747.987c4.935,0,8.933,4.002,8.933,8.933
				c0,4.938-3.998,8.933-8.933,8.933s-8.933-3.995-8.933-8.933C612.325,751.989,616.323,747.987,621.258,747.987z"/>
			<path fill-rule="evenodd" clip-rule="evenodd" fill="#FFEABF" d="M668.044,747.987c4.931,0,8.934,4.002,8.934,8.933
				c0,4.938-4.003,8.933-8.934,8.933c-4.934,0-8.937-3.995-8.937-8.933C659.107,751.989,663.11,747.987,668.044,747.987z"/>
			<path fill-rule="evenodd" clip-rule="evenodd" fill="#FFEABF" d="M714.826,747.987c4.935,0,8.933,4.002,8.933,8.933
				c0,4.938-3.998,8.933-8.933,8.933c-4.934,0-8.933-3.995-8.933-8.933C705.894,751.989,709.893,747.987,714.826,747.987z"/>
		</g>
		<g>
			<path fill-rule="evenodd" clip-rule="evenodd" fill="#FFEABF" d="M598.272,782.126c4.747,0.213,8.527,4.126,8.527,8.926
				c0,4.777-3.75,8.677-8.47,8.919L598.272,782.126z"/>
			<path fill-rule="evenodd" clip-rule="evenodd" fill="#FFEABF" d="M644.649,782.119c4.934,0,8.933,3.995,8.933,8.933
				c0,4.93-3.999,8.933-8.933,8.933s-8.934-4.003-8.934-8.933C635.716,786.114,639.716,782.119,644.649,782.119z"/>
			<path fill-rule="evenodd" clip-rule="evenodd" fill="#FFEABF" d="M691.436,782.119c4.93,0,8.933,3.995,8.933,8.933
				c0,4.93-4.003,8.933-8.933,8.933c-4.935,0-8.937-4.003-8.937-8.933C682.499,786.114,686.501,782.119,691.436,782.119z"/>
			<path fill-rule="evenodd" clip-rule="evenodd" fill="#FFEABF" d="M738.218,782.119c0.196,0,0.391,0.007,0.58,0.021l0.084,17.822
				c-0.219,0.014-0.441,0.021-0.664,0.021c-4.934,0-8.933-4.003-8.933-8.933C729.285,786.114,733.284,782.119,738.218,782.119z"/>
		</g>
	</g>
</g>
</svg>
