<?xml version="1.0" encoding="utf-8"?>
<!-- Generator: Adobe Illustrator 16.0.0, SVG Export Plug-In . SVG Version: 6.00 Build 0)  -->
<!DOCTYPE svg PUBLIC "-//W3C//DTD SVG 1.1//EN" "http://www.w3.org/Graphics/SVG/1.1/DTD/svg11.dtd">
<svg version="1.1" id="Layer_1" xmlns="http://www.w3.org/2000/svg" xmlns:xlink="http://www.w3.org/1999/xlink" x="0px" y="0px"
	 width="576.058px" height="914.79px" viewBox="0 0 576.058 914.79" enable-background="new 0 0 576.058 914.79"
	 xml:space="preserve">
<g>
	<polygon fill-rule="evenodd" clip-rule="evenodd" fill="#FED4A4" points="169.039,409.173 251.43,457.932 289.743,393.202 
		383.969,325.438 261.5,252.948 	"/>
	<path fill-rule="evenodd" clip-rule="evenodd" fill="#FED4A4" d="M472.294,191.872L472.294,191.872
		c4.844,8.204,2.04,18.785-6.098,23.725l-143.315,87.016c-8.138,4.945-18.876,2.107-23.726-6.097l0,0
		c-4.85-8.204-2.046-18.774,6.097-23.719l143.316-87.021C456.717,180.829,467.444,183.667,472.294,191.872z"/>
	<g>
		<path fill-rule="evenodd" clip-rule="evenodd" fill="#474545" d="M352.129,76.202l93.883,22.394
			c18.185,4.338,29.514,22.764,25.175,40.942l-59.453,249.258c-4.338,18.18-22.758,29.508-40.942,25.17l-93.883-22.394
			c-18.184-4.338-29.507-22.759-25.175-40.942l59.453-249.253C315.524,83.193,333.945,71.87,352.129,76.202z"/>
		<g>
			<defs>
				<path id="XMLID_2_" d="M327.297,98.23l130.932,31.232c0.253,0.062,0.416,0.32,0.354,0.573l-61.756,258.906
					c-0.063,0.253-0.32,0.41-0.574,0.349l-130.925-31.228c-0.259-0.061-0.416-0.32-0.354-0.572l61.752-258.907
					C326.786,98.332,327.044,98.174,327.297,98.23z"/>
			</defs>
			<use xlink:href="#XMLID_2_"  overflow="visible" fill-rule="evenodd" clip-rule="evenodd" fill="#FFFFFF"/>
			<clipPath id="XMLID_5_">
				<use xlink:href="#XMLID_2_"  overflow="visible"/>
			</clipPath>
			<g clip-path="url(#XMLID_5_)">
				
					<rect x="295.001" y="110.5" transform="matrix(0.9724 0.2335 -0.2335 0.9724 66.9216 -77.8128)" fill-rule="evenodd" clip-rule="evenodd" fill="#FFFFFF" stroke="#465955" stroke-miterlimit="10" width="134.306" height="266.563"/>
				
					<rect x="323.555" y="173.557" transform="matrix(0.9724 0.2334 -0.2334 0.9724 56.1593 -74.0684)" fill-rule="evenodd" clip-rule="evenodd" fill="#77503D" width="34.86" height="53.313"/>
				
					<rect x="322.04" y="171.085" transform="matrix(0.9724 0.2335 -0.2335 0.9724 55.5475 -73.7903)" fill-rule="evenodd" clip-rule="evenodd" fill="#593C2B" width="34.858" height="53.312"/>
				
					<rect x="388.354" y="189.116" transform="matrix(0.9724 0.2335 -0.2335 0.9724 61.5918 -88.7764)" fill-rule="evenodd" clip-rule="evenodd" fill="#354B66" width="34.857" height="53.312"/>
				
					<rect x="386.838" y="186.644" transform="matrix(0.9724 0.2335 -0.2335 0.9724 60.981 -88.5002)" fill-rule="evenodd" clip-rule="evenodd" fill="#2A3C56" width="34.857" height="53.312"/>
				<g>
					<path fill="#465955" d="M336.236,132.053l-2.544-0.61c0.558-2.32,0.669-2.61,1.304-2.457l1.869,0.449l1.364-5.688
						c0.255-1.046,0.813-0.912,3.322-0.31l-1.616,6.734l3.813,0.915c-0.567,2.357-0.629,2.62-1.227,2.476l-3.216-0.772
						l-2.615,10.885c-0.386,1.607-0.71,2.955,0.639,3.278c0.859,0.207,1.465,0.154,2.303-0.041c0.015,0.439,0.012,0.952-0.135,1.551
						c-0.333,1.384-2.161,1.262-3.621,0.911c-3.18-0.763-3.062-3.071-2.253-6.436L336.236,132.053z"/>
					<path fill="#465955" d="M345.904,132.988c1.701-0.659,3.657-0.902,5.49-0.461c1.907,0.458,2.482,1.19,2.241,2.2
						c-0.099,0.411-0.354,1.141-0.769,1.715c-0.489-0.436-1.051-0.728-1.686-0.881c-0.824-0.197-1.822-0.159-2.678,0.268
						l-3.567,14.693c-0.145,0.598-0.18,0.588-3.208-0.139L345.904,132.988z"/>
					<path fill="#465955" d="M360.82,134.79c3.928,0.943,5.314,3.414,3.492,11.007c-1.672,6.956-4.494,9.326-8.498,8.365
						c-3.854-0.926-5.559-2.72-3.539-11.136C353.92,136.178,356.891,133.846,360.82,134.79z M356.508,151.598
						c1.609,0.387,3.102-0.72,4.502-6.554c1.428-5.949,0.818-7.203-0.938-7.625c-1.648-0.396-3.121,0.634-4.521,6.47
						C354.068,150.062,354.786,151.185,356.508,151.598z"/>
					<path fill="#465955" d="M377.332,142.315c-0.517-0.48-1.449-1.061-2.457-1.303c-1.758-0.422-3.892-0.103-5.492,6.555
						c-1.265,5.276-0.543,6.873,1.741,7.421c1.197,0.287,2.427,0.108,3.161-0.152c0.023,0.719,0.02,1.232-0.096,1.717
						c-0.244,1.013-2.179,1.497-4.649,0.904c-3.552-0.854-5.23-2.761-3.336-10.653c2.155-8.977,6.062-9.267,9.167-8.521
						c1.721,0.414,2.936,1.456,2.701,2.428C377.974,141.125,377.746,141.742,377.332,142.315z"/>
					<path fill="#465955" d="M380.478,140.578c0.735-0.258,3.087-0.327,5.929,0.356c3.218,0.772,4.352,2.31,3.543,5.677
						l-0.477,1.982c-1.033,4.302-2.147,8.782-3.017,11.58c-1.154,0.356-3.072,0.608-5.505,0.024
						c-2.742-0.62-5.217-1.846-3.984-6.971c1.249-5.199,3.939-5.542,6.447-4.939c0.821,0.198,1.957,0.588,2.614,1.142l0.708-2.955
						c0.423-1.759-0.291-2.406-1.787-2.766c-1.871-0.448-3.942-0.55-5.136-0.361c-0.194-0.679-0.106-1.371,0.002-1.82
						C379.914,141.115,380.125,140.732,380.478,140.578z M383.839,150.801c-1.497-0.36-2.895-0.141-3.675,3.113
						c-0.657,2.731,0.2,3.452,1.658,3.802c0.823,0.198,1.719,0.096,2.135-0.161c0.408-1.207,1.074-3.975,1.56-5.995
						C385.084,151.217,384.363,150.926,383.839,150.801z"/>
					<path fill="#59B3AD" d="M392.742,162c-0.145,0.598-0.145,0.598-3.173-0.13l6.269-26.11c0.33-1.383,0.931-1.239,3.36-0.655
						L392.742,162z"/>
					<path fill="#59B3AD" d="M399.289,163.571c-0.145,0.598-0.184,0.588-3.25-0.148l4.158-17.319c0.332-1.383,0.97-1.23,3.438-0.638
						L399.289,163.571z M404.293,136.96c1.16,0.278,1.39,0.965,0.974,2.528c-0.368,1.534-1.144,2.297-2.303,2.019
						c-0.975-0.234-1.392-0.968-0.968-2.725C402.356,137.443,403.094,136.672,404.293,136.96z"/>
					<path fill="#59B3AD" d="M405.804,146.975c0.038-0.979,0.151-0.952,3.478-0.152l-0.238,6.272
						c-0.148,4.079-0.815,9.815-0.815,9.815l0.076,0.018c0,0,1.974-5.422,3.666-9.171l2.276-5.03
						c0.274-0.646,0.31-0.637,3.377,0.099l-8.818,17.782c-0.587-0.022-1.674-0.284-2.159-0.399c-0.711-0.17-0.896-1.046-0.908-2.155
						L405.804,146.975z"/>
					<path fill="#59B3AD" d="M418.846,150.502c1.699-0.66,3.657-0.902,5.488-0.463c1.908,0.458,2.484,1.191,2.244,2.201
						c-0.101,0.411-0.354,1.142-0.77,1.714c-0.487-0.434-1.055-0.727-1.686-0.879c-0.824-0.197-1.822-0.159-2.677,0.268
						l-3.569,14.692c-0.145,0.599-0.18,0.589-3.21-0.137L418.846,150.502z"/>
					<path fill="#59B3AD" d="M433.764,152.304c3.924,0.942,5.311,3.414,3.488,11.007c-1.67,6.955-4.494,9.325-8.498,8.364
						c-3.854-0.926-5.56-2.72-3.538-11.136C426.86,153.692,429.833,151.36,433.764,152.304z M429.448,169.113
						c1.608,0.385,3.101-0.722,4.501-6.556c1.428-5.949,0.82-7.202-0.938-7.625c-1.646-0.396-3.118,0.636-4.521,6.472
						C427.01,167.575,427.729,168.698,429.448,169.113z"/>
				</g>
				
					<rect x="309.808" y="238.071" transform="matrix(0.9724 0.2335 -0.2335 0.9724 65.5701 -67.5266)" fill-rule="evenodd" clip-rule="evenodd" fill="#59B3AD" width="16.405" height="10.254"/>
				
					<rect x="329.746" y="242.86" transform="matrix(0.9724 0.2335 -0.2335 0.9724 67.2479 -72.0567)" fill-rule="evenodd" clip-rule="evenodd" fill="#59B3AD" width="16.403" height="10.253"/>
				<line fill="none" stroke="#465955" stroke-miterlimit="10" x1="313.505" y1="226.828" x2="349.394" y2="235.446"/>
				<line fill="none" stroke="#465955" stroke-miterlimit="10" x1="316.536" y1="231.774" x2="344.449" y2="238.476"/>
				
					<rect x="376.601" y="254.11" transform="matrix(0.9724 0.2334 -0.2334 0.9724 71.1459 -82.6646)" fill-rule="evenodd" clip-rule="evenodd" fill="#59B3AD" width="16.405" height="10.253"/>
				
					<rect x="396.539" y="258.897" transform="matrix(0.9724 0.2335 -0.2335 0.9724 72.8342 -87.2052)" fill-rule="evenodd" clip-rule="evenodd" fill="#59B3AD" width="16.404" height="10.252"/>
				<line fill="none" stroke="#465955" stroke-miterlimit="10" x1="380.298" y1="242.866" x2="416.187" y2="251.483"/>
				<line fill="none" stroke="#465955" stroke-miterlimit="10" x1="383.33" y1="247.812" x2="411.241" y2="254.513"/>
				
					<rect x="299.618" y="273.248" transform="matrix(0.9724 0.2335 -0.2335 0.9724 78.7771 -65.7306)" fill-rule="evenodd" clip-rule="evenodd" fill="#94BF40" width="34.857" height="53.313"/>
				
					<rect x="298.104" y="270.776" transform="matrix(0.9724 0.2335 -0.2335 0.9724 78.168 -65.4517)" fill-rule="evenodd" clip-rule="evenodd" fill="#739937" width="34.857" height="53.313"/>
				
					<rect x="364.418" y="288.807" transform="matrix(0.9724 0.2335 -0.2335 0.9724 84.211 -80.4369)" fill-rule="evenodd" clip-rule="evenodd" fill="#D3404A" width="34.857" height="53.313"/>
				
					<rect x="362.902" y="286.335" transform="matrix(0.9724 0.2335 -0.2335 0.9724 83.5998 -80.1577)" fill-rule="evenodd" clip-rule="evenodd" fill="#C1272D" width="34.858" height="53.311"/>
				
					<rect x="285.871" y="337.763" transform="matrix(0.9724 0.2334 -0.2334 0.9724 88.1608 -59.1707)" fill-rule="evenodd" clip-rule="evenodd" fill="#59B3AD" width="16.404" height="10.252"/>
				
					<rect x="305.809" y="342.551" transform="matrix(0.9724 0.2335 -0.2335 0.9724 89.8529 -63.7054)" fill-rule="evenodd" clip-rule="evenodd" fill="#59B3AD" width="16.405" height="10.252"/>
				<line fill="none" stroke="#465955" stroke-miterlimit="10" x1="289.568" y1="326.52" x2="325.458" y2="335.137"/>
				<line fill="none" stroke="#465955" stroke-miterlimit="10" x1="292.601" y1="331.464" x2="320.512" y2="338.167"/>
				
					<rect x="352.664" y="353.8" transform="matrix(0.9724 0.2335 -0.2335 0.9724 93.7863 -74.3412)" fill-rule="evenodd" clip-rule="evenodd" fill="#59B3AD" width="16.403" height="10.253"/>
				
					<rect x="372.603" y="358.588" transform="matrix(0.9724 0.2334 -0.2334 0.9724 95.4298 -78.848)" fill-rule="evenodd" clip-rule="evenodd" fill="#59B3AD" width="16.402" height="10.252"/>
				<line fill="none" stroke="#465955" stroke-miterlimit="10" x1="356.362" y1="342.557" x2="392.252" y2="351.175"/>
				<line fill="none" stroke="#465955" stroke-miterlimit="10" x1="359.392" y1="347.502" x2="387.307" y2="354.204"/>
			</g>
		</g>
		<path fill-rule="evenodd" clip-rule="evenodd" fill="#8C8E8F" d="M372.955,89.419l48.512,11.57
			c1.314,0.315,2.135,1.641,1.82,2.961l0,0c-0.314,1.315-1.646,2.135-2.961,1.821l-48.513-11.57
			c-1.314-0.314-2.135-1.646-1.82-2.961v-0.005C370.308,89.919,371.64,89.104,372.955,89.419z"/>
		<path fill-rule="evenodd" clip-rule="evenodd" fill="#8C8E8F" d="M329.354,379.692c4.462,1.063,7.221,5.547,6.153,10.009
			c-1.062,4.462-5.546,7.221-10.008,6.153c-4.468-1.063-7.221-5.547-6.153-10.008C320.408,381.385,324.887,378.626,329.354,379.692z
			"/>
	</g>
	<polygon fill-rule="evenodd" clip-rule="evenodd" fill="#465955" points="170.371,379.647 276.307,442.344 209.324,555.512 
		83.973,525.611 	"/>
	<path fill-rule="evenodd" clip-rule="evenodd" fill="#FED4A4" d="M217.416,350.337l10.525,6.238l6.563-13.706l52.766-109.982
		c10.975-22.871-2.073-34.599-15.841-42.747l-62.285,129.824C203.913,330.872,207.627,344.55,217.416,350.337z"/>
	<path fill-rule="evenodd" clip-rule="evenodd" fill="#FFE5C7" d="M276.206,193.169c-1.557-1.068-3.158-2.074-4.776-3.029
		l-12.543,26.147C268.822,218.519,273.413,203.206,276.206,193.169z"/>
	<path fill-rule="evenodd" clip-rule="evenodd" fill="#D4A26A" d="M249.081,299.685c8.581,2.484,12.778,8.44,11.503,13.852
		l11.813-50.169l18.139-36.841c5.496-10.733-1.674-25.787-9.789-30.209c7.092,3.894,10.733,15.61,6.12,25.214
		C279.016,237.905,249.52,299.14,249.081,299.685z"/>
	<g>
		<g>
			<g>
				<path fill-rule="evenodd" clip-rule="evenodd" fill="#FED4A4" d="M378.771,466.978l17.701,107.479l86.83,20.711
					c4.646-2.495,9.232-5.097,13.75-7.806l-17.133-115.703L378.771,466.978z"/>
				<polygon fill-rule="evenodd" clip-rule="evenodd" fill="#465955" points="500.609,520.092 511.966,602.006 402.759,715.809 
					382.187,537.366 				"/>
				<polygon fill-rule="evenodd" clip-rule="evenodd" fill="#59B3AD" points="520.845,554.952 535.09,657.702 398.101,800.459 
					372.297,576.623 				"/>
			</g>
			<g>
				<path fill-rule="evenodd" clip-rule="evenodd" fill="#FED4A4" d="M311.618,370.077l31.256,78.368
					c4.023,10.087,29.299,44.354,39.678,41.156c10.368-3.198,4.58-35.807,0.304-45.798l-25.394-54.059
					C342.901,358.743,322.441,365.379,311.618,370.077z"/>
				<path fill-rule="evenodd" clip-rule="evenodd" fill="#FED4A4" d="M358.029,240.23l17.347,96.08
					c6.8-15.031,31.39-11.711,36.531,5.227c4.855-16.364,28.254-15.145,35.914-0.697c6.951-14.346,31.395-10.059,34.677,7.738
					l15.015,81.514c4.215,22.888-2.742,54.609-10.356,68.09c-22.567,39.948-79.575,27.782-96.389,9.84
					c-13.11-13.986-24.012-22.506-26.434-34.728l-44.719-226.511C313.934,218.152,353.989,216.573,358.029,240.23z"/>
				<path fill-rule="evenodd" clip-rule="evenodd" fill="#D4A26A" d="M454.283,369.156c0,0-2.658-16.229-5.08-30.626
					c-0.517,0.708-0.978,1.478-1.382,2.31c-0.675-1.27-1.473-2.434-2.36-3.495C449.333,351.736,454.283,369.156,454.283,369.156
					L454.283,369.156z M375.578,335.883c0.641-1.314,1.422-2.488,2.321-3.518c2.663,16.15,6.586,43.859,6.586,43.859
					s-6.766-27.967-9.109-39.914C375.409,336.496,375.482,336.305,375.578,335.883L375.578,335.883z M408.569,335.058
					c1.444,1.865,2.597,4.028,3.338,6.479c0.326-1.091,0.73-2.097,1.209-3.035c2.82,15.914,6.237,35.644,6.237,35.644
					S412.452,350.095,408.569,335.058z"/>
			</g>
		</g>
		<path fill-rule="evenodd" clip-rule="evenodd" fill="#FFE5C7" d="M353.073,239.995l1.461,8.244
			c-8.436,9.193-18.303,10.553-29.361,5.372l-1.551-7.856C319.452,224.378,350.167,222.327,353.073,239.995z"/>
		<path fill-rule="evenodd" clip-rule="evenodd" fill="#FFE5C7" d="M317.092,368.611c-1.843,0.421-3.669,0.921-5.474,1.466
			l10.768,26.99C330.764,391.257,322.599,377.479,317.092,368.611z"/>
		<polygon fill-rule="evenodd" clip-rule="evenodd" fill="#D4A26A" points="344.29,371.769 355.326,427.682 337.996,369.139 		"/>
	</g>
	<polygon fill-rule="evenodd" clip-rule="evenodd" fill="#59B3AD" points="141.341,406.295 268.833,481.752 188.224,617.943 
		37.371,581.962 	"/>
	<path fill-rule="evenodd" clip-rule="evenodd" fill="#FED4A4" d="M445.518,284.496L445.518,284.496
		c4.85,8.204,2.079,18.87-6.098,23.725l-27.799,16.515c-8.182,4.861-18.875,2.107-23.725-6.097l0,0
		c-4.85-8.199-2.096-18.853,6.097-23.719l27.805-16.521C429.985,273.532,440.668,276.291,445.518,284.496z"/>
	<path fill-rule="evenodd" clip-rule="evenodd" fill="#FED4A4" d="M461.527,237.658L461.527,237.658
		c4.854,8.204,2.084,18.87-6.092,23.725l-23.68,14.065c-8.177,4.861-18.876,2.107-23.726-6.097l0,0
		c-4.844-8.204-2.09-18.853,6.103-23.719l23.675-14.071C446.001,226.694,456.684,229.454,461.527,237.658z"/>
	<path fill-rule="evenodd" clip-rule="evenodd" fill="#FFE5C7" d="M416.415,248.936l6.462-3.681
		c10.199,4.327,14.273,12.177,13.229,22.972l-6.109,3.63C413.352,281.708,402.496,256.624,416.415,248.936z"/>
	<path fill-rule="evenodd" clip-rule="evenodd" fill="#FFE5C7" d="M396.702,297.87l6.462-3.681
		c10.205,4.327,14.279,12.171,13.229,22.972l-6.108,3.63C393.64,330.642,382.788,305.557,396.702,297.87z"/>
</g>
</svg>
