<?xml version="1.0" encoding="utf-8"?>
<!-- Generator: Adobe Illustrator 16.0.0, SVG Export Plug-In . SVG Version: 6.00 Build 0)  -->
<!DOCTYPE svg PUBLIC "-//W3C//DTD SVG 1.1//EN" "http://www.w3.org/Graphics/SVG/1.1/DTD/svg11.dtd">
<svg version="1.1" id="Layer_1" xmlns="http://www.w3.org/2000/svg" xmlns:xlink="http://www.w3.org/1999/xlink" x="0px" y="0px"
	 width="856.282px" height="914.79px" viewBox="0 0 856.282 914.79" enable-background="new 0 0 856.282 914.79"
	 xml:space="preserve">
<g>
	<g>
		<path fill="#B5B5B5" d="M308.396,601.878c0,0,3.317-0.873-4.19,38.236c-7.508,39.109-14.317,72.285-14.317,72.285
			s-1.407,6.637-4.19,5.76c-2.782-0.877-4.714-18.506-4.889-19.031c-0.174-0.523-0.523-16.934,0-19.555
			c0.524-2.619,5.046-28.459,5.229-31.252c0.183-2.795,3.85-19.557,5.247-23.049c1.397-3.49,5.762-10.125,6.81-10.824
			c0.85-0.566,6.567-8.959,8.891-11.922C307.524,601.839,308.396,601.878,308.396,601.878z"/>
		<path fill="#2D2420" d="M227.498,777.058c0,0,13.981-0.613,42.371-101.15c25.39-89.917,21.417-84.621,21.417-84.621l-25.607,1.861
			l-41.904,12.572c0,0-16.761,21.883-17.227,26.537c-0.465,4.656-0.932,48.383,0,51.43
			C207.478,686.733,227.498,777.058,227.498,777.058z"/>
		<path fill="#FFD5B8" d="M358.856,595.623c0,0,5.063-13.185,6.459-15.279c1.396-2.096,7.45-5.354,13.735-5.354
			c6.285,0,21.184-2.328,29.565-4.424c8.38-2.094,21.652-2.56,35.154-1.396c13.5,1.164,26.071,1.164,30.96,1.164
			c0,0,7.216,0.699,14.201,2.795c6.984,2.095,12.804,3.025,23.28,0.697s53.31-11.406,53.31-11.406l29.218,96.717
			c0,0-47.606,11.998-54.825,16.771c-7.217,4.771-22.347,17.809-22.347,17.809l-72.634,69.141c0,0-8.38,10.012-13.734,12.572
			c-5.355,2.561-19.089,4.422-19.089,4.422s-11.641-0.465-13.969-11.406c0,0-7.449,1.863-14.2-1.861
			c-6.751-3.727-17.46-6.752-17.46-11.174c0,0-15.132-3.027-20.719-3.959c-5.587-0.932-18.624-12.34-7.217-29.566
			c0,0-2.553,0.699-4.536,1.863c-1.982,1.164-5.475,5.588-8.036,6.053c-2.561,0.465-10.476,1.861-13.037,1.629
			c-2.56-0.23-12.804-8.381-12.804-16.063s3.375-11.523,3.375-11.523l62.227-51.393l-10.43-52.318l2.822-4.053"/>
		<g>
			<defs>
				<path id="XMLID_3_" d="M78.7,529.062l212.586,62.225c0,0-31.196,49.818-45.165,103.826
					c-13.968,54.01-18.624,81.945-18.624,81.945L78.7,727.474V529.062z"/>
			</defs>
			<use xlink:href="#XMLID_3_"  overflow="visible" fill="#C1272D"/>
			<clipPath id="XMLID_5_">
				<use xlink:href="#XMLID_3_"  overflow="visible"/>
			</clipPath>
			<g clip-path="url(#XMLID_5_)">
				<g>
					<path fill-rule="evenodd" clip-rule="evenodd" fill="#FFEABF" d="M120.674,541.872L120.674,541.872
						c-1.544,5.818-7.507,9.291-13.326,7.765l2.768-10.566L120.674,541.872z"/>
					<path fill-rule="evenodd" clip-rule="evenodd" fill="#FFEABF" d="M175.971,556.526l-0.004,0.018
						c-1.546,5.827-7.528,9.303-13.359,7.756s-9.304-7.531-7.757-13.359l0.001-0.008L175.971,556.526z"/>
					<path fill-rule="evenodd" clip-rule="evenodd" fill="#FFEABF" d="M231.272,571.19l-0.007,0.025
						c-1.546,5.828-7.533,9.303-13.359,7.756c-5.833-1.547-9.307-7.531-7.761-13.359l0.004-0.018L231.272,571.19z"/>
					<path fill-rule="evenodd" clip-rule="evenodd" fill="#FFEABF" d="M273.249,593.657l-0.05-0.014
						c-5.831-1.547-9.302-7.531-7.757-13.359l0.009-0.033l10.558,2.803L273.249,593.657z"/>
				</g>
				<g>
					<path fill-rule="evenodd" clip-rule="evenodd" fill="#FFEABF" d="M130.417,574.091c5.832,1.548,9.303,7.533,7.756,13.359
						c-1.548,5.836-7.527,9.303-13.359,7.756c-5.832-1.548-9.305-7.523-7.756-13.359
						C118.603,576.021,124.584,572.544,130.417,574.091z"/>
					<path fill-rule="evenodd" clip-rule="evenodd" fill="#FFEABF" d="M185.714,588.763c5.828,1.547,9.303,7.535,7.757,13.361
						c-1.548,5.836-7.532,9.301-13.36,7.756c-5.831-1.549-9.309-7.525-7.761-13.359
						C173.896,590.692,179.883,587.217,185.714,588.763z"/>
					<path fill-rule="evenodd" clip-rule="evenodd" fill="#FFEABF" d="M241.006,603.437c5.833,1.547,9.303,7.531,7.756,13.359
						c-1.548,5.834-7.526,9.303-13.358,7.754c-5.832-1.547-9.305-7.521-7.757-13.357
						C229.194,605.366,235.175,601.888,241.006,603.437z"/>
				</g>
				<g>
					<path fill-rule="evenodd" clip-rule="evenodd" fill="#FFEABF" d="M92.291,607.157c5.691,1.639,9.06,7.541,7.531,13.299
						c-1.521,5.732-7.328,9.182-13.068,7.826L92.291,607.157z"/>
					<path fill-rule="evenodd" clip-rule="evenodd" fill="#FFEABF" d="M147.359,621.769c5.831,1.547,9.302,7.533,7.756,13.359
						c-1.546,5.828-7.528,9.303-13.359,7.758c-5.831-1.547-9.304-7.533-7.757-13.359
						C135.545,623.698,141.528,620.222,147.359,621.769z"/>
					<path fill-rule="evenodd" clip-rule="evenodd" fill="#FFEABF" d="M202.657,636.442c5.826,1.545,9.302,7.533,7.756,13.359
						c-1.546,5.826-7.533,9.303-13.359,7.756c-5.833-1.549-9.307-7.533-7.761-13.361
						C190.839,638.37,196.824,634.894,202.657,636.442z"/>
					<path fill-rule="evenodd" clip-rule="evenodd" fill="#FFEABF" d="M257.949,651.114l0.318,0.092l-5.499,21.125l-0.422-0.104
						c-5.831-1.547-9.302-7.531-7.756-13.357C246.137,653.042,252.118,649.565,257.949,651.114z"/>
				</g>
				<g>
					<path fill-rule="evenodd" clip-rule="evenodd" fill="#FFEABF" d="M109.564,652.675c5.832,1.549,9.303,7.533,7.757,13.361
						c-1.549,5.834-7.527,9.303-13.359,7.754c-5.832-1.547-9.305-7.523-7.757-13.357
						C97.751,654.604,103.731,651.128,109.564,652.675z"/>
					<path fill-rule="evenodd" clip-rule="evenodd" fill="#FFEABF" d="M164.862,667.349c5.828,1.547,9.304,7.531,7.758,13.361
						c-1.549,5.834-7.533,9.299-13.361,7.754c-5.831-1.547-9.31-7.525-7.761-13.359
						C153.044,669.276,159.031,665.802,164.862,667.349z"/>
					<path fill-rule="evenodd" clip-rule="evenodd" fill="#FFEABF" d="M220.155,682.021c5.832,1.547,9.302,7.531,7.756,13.357
						c-1.548,5.838-7.527,9.307-13.358,7.758c-5.832-1.547-9.305-7.523-7.756-13.357
						C208.342,683.95,214.324,680.474,220.155,682.021z"/>
				</g>
				<g>
					<path fill-rule="evenodd" clip-rule="evenodd" fill="#FFEABF" d="M71.691,685.815c5.544,1.742,8.784,7.553,7.279,13.225
						c-1.498,5.648-7.153,9.08-12.808,7.887L71.691,685.815z"/>
					<path fill-rule="evenodd" clip-rule="evenodd" fill="#FFEABF" d="M126.506,700.353c5.831,1.549,9.306,7.523,7.757,13.359
						c-1.546,5.826-7.528,9.305-13.359,7.758c-5.831-1.549-9.304-7.533-7.758-13.361
						C114.695,702.272,120.675,698.806,126.506,700.353z"/>
					<path fill-rule="evenodd" clip-rule="evenodd" fill="#FFEABF" d="M181.805,715.028c5.826,1.545,9.304,7.521,7.756,13.357
						c-1.547,5.828-7.533,9.303-13.359,7.756c-5.833-1.547-9.308-7.535-7.761-13.359
						C169.989,716.944,175.972,713.479,181.805,715.028z"/>
					<path fill-rule="evenodd" clip-rule="evenodd" fill="#FFEABF" d="M237.097,729.698c0.233,0.061,0.459,0.129,0.679,0.205
						l-5.49,21.092c-0.263-0.053-0.528-0.111-0.792-0.182c-5.831-1.547-9.302-7.533-7.756-13.359
						C225.287,731.618,231.266,728.151,237.097,729.698z"/>
				</g>
				<path fill-rule="evenodd" clip-rule="evenodd" fill="#FFEABF" d="M92.428,607.308c5.833,1.547,9.302,7.533,7.756,13.359
					c-1.548,5.836-7.527,9.305-13.359,7.756c-5.833-1.547-9.305-7.523-7.756-13.359C80.614,609.237,86.595,605.761,92.428,607.308z"
					/>
				<path fill-rule="evenodd" clip-rule="evenodd" fill="#FFEABF" d="M112.55,528.513c5.833,1.547,9.303,7.532,7.756,13.358
					c-1.548,5.836-7.526,9.304-13.358,7.757c-5.833-1.549-9.305-7.523-7.756-13.359C100.737,530.442,106.718,526.965,112.55,528.513
					z"/>
				<path fill-rule="evenodd" clip-rule="evenodd" fill="#FFEABF" d="M75.552,689.427c5.833,1.549,9.303,7.533,7.756,13.359
					c-1.548,5.836-7.527,9.303-13.359,7.756s-9.305-7.523-7.756-13.357C63.739,691.356,69.72,687.88,75.552,689.427z"/>
			</g>
		</g>
		<path fill="#E6E7E8" d="M288.58,595.788l19.816,6.09c0,0-0.873,0.305-1.2,0.895c-9.816,17.67-13.465,22.328-21.157,76.801
			c0,0-3.309,23.746-1.475,35.881c0.28,1.855,1.134,2.705,1.134,2.705l-42.077-13.27c10.999-40.854,12.878-43.301,19.146-58.896
			C273.959,618.146,288.58,595.788,288.58,595.788z"/>
		<path fill="#465955" d="M594.004,550.554l-26.155,4.531c0,0-4.125,0.943-2.329,7.334c1.798,6.391,35.152,116.281,35.152,116.281
			s9.429,18.158,30.382,13.969c20.952-4.189,16.41-4.539,16.41-4.539l-53.46-135.289V550.554z"/>
		<path fill="#59B3AD" d="M770.89,490.126c0,0-106.663,38.77-120.863,42.494c-14.201,3.726-51.215,12.804-51.215,12.804
			s-9.777,0.466-4.191,22.349c5.587,21.883,67.045,159.701,67.045,159.701l109.223-37.67V490.126z"/>
		<path fill="#EAB896" d="M336.275,722.663l45.104-31.506c0,0,8.846-7.451,9.312-15.25c0,0,1.863,8.73-9.079,17.809
			c-10.941,9.08-47.724,35.822-47.509,39.615c0,0,0.338-4.463,2.864-8.822c0.37-0.639,1.578-2.625,1.578-2.625L336.275,722.663z"/>
		<path fill="#EAB896" d="M366.479,755.409c-0.479-0.094,3.725-0.061,7.915-2.678c4.191-2.619,29.682-27.412,31.602-28.811
			c1.921-1.395,5.762-3.328,8.207-3.152c0,0-4.249,0.359-7.857,4.375l-27.819,28.809c0,0-4.402,5.178-10.462,4.365
			c0,0-0.494-0.426-0.852-0.926c-0.359-0.5-0.583-1.072-0.609-1.164C366.546,756.028,366.479,755.409,366.479,755.409
			S367.935,755.694,366.479,755.409z"/>
		<path fill="#EAB896" d="M396.215,768.761c0,0,2.591-0.342,5.273-1.209c1.352-0.436,1.602-0.553,3.81-1.725
			c3.523-1.873,21.475-22.176,26.888-26.191s7.247-3.619,12.222-3.666c0,0-8.652,0.453-13.194,6.432
			c-3.152,4.148-18.906,24.203-25.891,27.457c-3.085,1.438-6.1,1.834-6.1,1.834s-0.488-1.15-0.627-1.566
			c-0.124-0.373-0.424-1.59-0.424-1.59L396.215,768.761z"/>
		<path fill="#FFBC8F" d="M539.913,675.907c0,0,6.983,3.84,7.333,12.047c0.351,8.207-5.936,18.508-11.871,19.031
			c-5.937,0.525-15.191-5.238-16.762-10.127c-1.572-4.889,3.491-10.998,7.508-14.664c4.015-3.67,9.896-7.803,13.266-5.934"/>
		<path fill="#FFBC8F" d="M528.622,719.206c0,0,0.233-9.193-5.936-14.316c-6.169-5.119-11.989-12.453-16.528-13.967
			c-4.54-1.514-13.107-2.91-19.416,5.936c-6.308,8.846-3.863,17.227,0.56,20.604c4.422,3.375,13.269,13.154,16.527,14.783
			c3.26,1.631,15.367,4.656,19.438,0C527.342,727.587,528.876,722.403,528.622,719.206z"/>
		<path fill="#FFBC8F" d="M496.262,728.286c0,0-11.638-10.824-14.316-12.92c-2.677-2.096-7.333-8.031-13.851-5.238
			s-12.803,14.9-9.544,21.184c3.258,6.287,15.248,19.09,16.062,19.557c0.815,0.465,9.429,7.217,14.201,5.354
			c4.772-1.861,9.661-9.777,10.359-14.084C499.871,737.833,499.769,731.53,496.262,728.286z"/>
		<path fill="#FFBC8F" d="M460.633,736.45c0,0-10.823-0.932-14.025,8.379c-3.2,9.313-0.524,16.414-0.524,16.414l-5.82,6.75
			c0,0,11.057,6.869,18.74,5.473s16.529-6.752,16.763-12.107C475.997,756.005,471.691,744.366,460.633,736.45z"/>
		<path fill="#FFBC8F" d="M336.448,611.306c0,0,26.772-21.883,57.036-33.057s35.617-4.424,44.463-3.26
			c8.847,1.164,20.022,3.027,24.212,4.656c4.191,1.629,8.149,5.122,10.476,13.968c2.329,8.847,8.38,18.39,11.176,21.417
			c2.793,3.027,4.887,10.477,0,15.6c-4.889,5.119-27.703,8.613-43.534-17.461c0,0-17.46-1.396-23.28-2.795
			c0,0-24.909,15.133-30.729,20.021c-5.82,4.889-12.92,17.926-22,24.211c-9.08,6.285-32.26,26.752-39.227,32.184
			c-5.449,4.25-22.579,18.633-22.579,18.633s-1.283,2.984-2.071,6.369c-0.362,1.557-0.259,6.367-0.259,6.367l-15.822-4.797
			c0,0-1.968-69.273,21.158-107.49l27.285,5.346L336.448,611.306z"/>
		<path fill="#E0925C" d="M348.029,667.517c0,0-16.935-1.502-22.988-7.322c0,0,4.648,5.916,20.303,9.574L348.029,667.517z"/>
	</g>
	<g opacity="0.5">
		<g>
			<g>
				<path fill="#59B3AD" d="M684.049,203.189c0-39.09-35.897-71.292-82.237-75.92c-9.657-19.636-33.181-33.511-60.693-33.511
					c-19.785,0-37.502,7.181-49.497,18.509c-7.826-1.973-16.064-3.053-24.579-3.053c-50.819,0-92.009,37.561-92.009,83.902
					c0,34.539,22.903,64.183,55.604,77.051c-0.017,0.487-0.047,0.976-0.047,1.462c0,32.622,34.714,59.071,77.545,59.071
					c24.511,0,46.35-8.686,60.568-22.208l56.314,69.694l-9.807-100.502C659.768,271.766,684.049,241.213,684.049,203.189z"/>
			</g>
		</g>
	</g>
	<path opacity="0.5" fill="#C1272D" d="M217.265,410.692l46.886-47.502l140.773-0.153c32.096-0.026,57.818-29.104,57.463-64.92
		l-0.6-60.285c-0.36-35.833-26.649-64.833-58.748-64.809l-149.091,0.148c-32.101,0.04-57.816,29.113-57.468,64.926l0.591,60.283
		c0.196,19.554,8.134,37.066,20.513,48.951C205.823,381.979,217.265,410.692,217.265,410.692z"/>
</g>
</svg>
