<?xml version="1.0" encoding="utf-8"?>
<!-- Generator: Adobe Illustrator 16.0.0, SVG Export Plug-In . SVG Version: 6.00 Build 0)  -->
<!DOCTYPE svg PUBLIC "-//W3C//DTD SVG 1.1//EN" "http://www.w3.org/Graphics/SVG/1.1/DTD/svg11.dtd">
<svg version="1.1" id="Layer_1" xmlns="http://www.w3.org/2000/svg" xmlns:xlink="http://www.w3.org/1999/xlink" x="0px" y="0px"
	 width="693.069px" height="914.79px" viewBox="0 0 693.069 914.79" enable-background="new 0 0 693.069 914.79"
	 xml:space="preserve">
<g>
	<path fill="#7C9901" d="M52.276,395.791L84.155,420.7l-30.002,57.478c-15.003,26.503,10.77,52.319,27.189,61.311
		c16.165,8.845,41.252,9.895,64.692,9.58l42.192-68.979l31.878,17.248l-55.318-102.502L52.276,395.791z"/>
	<path fill="#7C9901" d="M56.965,536.49l68.445,126.449c13.748,17.566,39.69,21.715,66.569,21.077h72.193V564.272l-136.89-0.957
		C106.034,564.591,78.218,560.12,56.965,536.49L56.965,536.49z"/>
	<path fill="#7C9901" d="M545.934,226.821l-38.193,16.209l-36.647-55.491c-16.314-26.637-52.288-16.359-68.518-6.097
		c-15.976,10.104-29.393,32.087-40.764,53.272l40.896,72.145l-31.325,20.027l119.462,1.344L545.934,226.821z"/>
	<path fill="#7C9901" d="M417.384,161.063l-147.47-1.481c-22.593,3.604-39.213,24.813-52.009,49.241l-35.897,64.762l107.417,59.543
		l68.929-122.319C367.776,191.11,385.62,168.376,417.384,161.063L417.384,161.063z"/>
	<path fill="#7C9901" d="M467.559,729.78l4.099-39.004l62.675-4.862c29.497-1.284,37.486-35.737,36.438-53.854
		c-1.029-17.837-13.058-39.008-25.361-58.115l-78.387,0.747l-2.199-35.067l-55.855,98.142L467.559,729.78z"/>
	<path fill="#7C9901" d="M580.834,653.641l68.804-121.243c7.372-20.324-2.542-43.79-16.875-65.559l-37.092-59.357l-98.454,61.521
		l69.542,113.042C578.728,598.861,589.345,624.025,580.834,653.641L580.834,653.641z"/>
</g>
</svg>
