<?xml version="1.0" encoding="utf-8"?>
<!-- Generator: Adobe Illustrator 19.1.0, SVG Export Plug-In . SVG Version: 6.00 Build 0)  -->
<svg version="1.1" id="Layer_1" xmlns="http://www.w3.org/2000/svg" xmlns:xlink="http://www.w3.org/1999/xlink" x="0px" y="0px"
	 viewBox="1524 -149.8 230 61" style="enable-background:new 1524 -149.8 230 61;" xml:space="preserve">
<style type="text/css">
	.st0{fill:#465955;}
	.st1{fill:#59B3AD;}
</style>
<g>
	<path class="st0" d="M1529.6-124.8h-5.6c0-5.1,0.1-5.7,1.5-5.7h4.1V-143c0-2.3,1.2-2.3,6.7-2.3v14.7h8.3c0,5.2,0,5.7-1.3,5.7h-7
		v23.8c0,3.5,0,6.5,2.9,6.5c1.9,0,3.1-0.4,4.7-1.2c0.2,0.9,0.5,2,0.5,3.3c0,3-3.8,3.7-7,3.7c-7,0-7.9-4.8-7.9-12.2V-124.8
		L1529.6-124.8z"/>
	<path class="st0" d="M1550-127.7c3.2-2.2,7.1-3.7,11.1-3.7c4.2,0,5.7,1.2,5.7,3.4c0,0.9-0.2,2.5-0.7,3.9c-1.2-0.7-2.5-1-3.9-1
		c-1.8,0-3.8,0.6-5.4,1.9l-0.1,32.2c0,1.3-0.1,1.3-6.7,1.3V-127.7L1550-127.7z"/>
	<path class="st0" d="M1581.8-131.4c8.6,0,12.7,4.4,12.7,21c0,15.2-4.7,21.5-13.4,21.5c-8.4,0-12.8-2.9-12.8-21.3
		C1568.2-125.1,1573.2-131.4,1581.8-131.4z M1581.2-94.5c3.5,0,6.1-3,6.1-15.8c0-13-1.9-15.3-5.7-15.3c-3.6,0-6.1,2.9-6.1,15.6
		C1575.4-96.4,1577.4-94.5,1581.2-94.5z"/>
	<path class="st0" d="M1619.7-124c-1.3-0.7-3.5-1.5-5.7-1.5c-3.8,0-8.1,1.7-8.1,16.3c0,11.5,2.3,14.5,7.3,14.5c2.6,0,5.1-1,6.5-1.9
		c0.4,1.5,0.7,2.5,0.7,3.6c0,2.2-3.8,4.2-9.2,4.2c-7.8,0-12.2-3.1-12.2-20.4c0-19.6,7.9-22.2,14.7-22.2c3.8,0,6.8,1.6,6.8,3.7
		C1620.4-126.8,1620.2-125.4,1619.7-124z"/>
	<path class="st0" d="M1625.3-129.2c1.4-0.9,6.2-2.2,12.4-2.2c7,0,10.1,2.6,10.1,10v4.3c0,9.4-0.1,19.2-0.5,25.4
		c-2.2,1.3-6.1,2.8-11.4,2.8c-6,0.1-11.7-1.2-11.7-12.4c0-11.4,5.4-13.4,10.9-13.4c1.8,0,4.3,0.2,6,1.1v-6.5c0-3.8-1.8-4.8-5.1-4.8
		c-4.1,0-8.4,0.8-10.8,1.8c-0.7-1.3-0.9-2.8-0.9-3.8C1624.4-127.8,1624.6-128.7,1625.3-129.2z M1637.3-109.7c-3.3,0-6.1,1.1-6.1,8.3
		c0,6,2.1,7,5.3,7c1.8,0,3.6-0.7,4.3-1.4c0.2-2.7,0.2-8.8,0.2-13.2C1640.1-109.4,1638.5-109.7,1637.3-109.7z"/>
	<path class="st1" d="M1661.3-91c0,1.3,0,1.3-6.6,1.3v-57.1c0-3,1.3-3,6.6-3V-91z"/>
	<path class="st1" d="M1675.6-91c0,1.3-0.1,1.3-6.8,1.3v-37.9c0-3,1.4-3,6.8-3V-91z M1672.8-148.5c2.5,0,3.4,1.3,3.3,4.7
		c0,3.4-1.2,5.3-3.8,5.3c-2.1,0-3.4-1.3-3.4-5.2C1669-146.5,1670.1-148.5,1672.8-148.5z"/>
	<path class="st1" d="M1680.8-128.5c-0.4-2-0.2-2,7.1-2l2.6,13.1c1.7,8.5,3.2,20.7,3.2,20.7h0.2c0,0,1.4-12.2,3-20.8l2.2-11.5
		c0.2-1.5,0.3-1.5,7-1.5l-9.4,41.2c-1.2,0.2-3.6,0.2-4.7,0.2c-1.6,0-2.4-1.7-2.9-4L1680.8-128.5z"/>
	<path class="st1" d="M1709.6-127.7c3.2-2.2,7.1-3.7,11.1-3.7c4.2,0,5.7,1.2,5.7,3.4c0,0.9-0.2,2.5-0.7,3.9c-1.2-0.7-2.5-1-3.9-1
		c-1.8,0-3.8,0.6-5.4,1.9l-0.1,32.2c0,1.3-0.1,1.3-6.7,1.3V-127.7L1709.6-127.7z"/>
	<path class="st1" d="M1741.3-131.4c8.6,0,12.7,4.4,12.7,21c0,15.2-4.7,21.5-13.4,21.5c-8.4,0-12.8-2.9-12.8-21.3
		C1727.7-125.1,1732.7-131.4,1741.3-131.4z M1740.7-94.5c3.5,0,6.1-3,6.1-15.8c0-13-1.9-15.3-5.7-15.3c-3.6,0-6.1,2.9-6.1,15.6
		C1734.9-96.4,1737-94.5,1740.7-94.5z"/>
</g>
</svg>
